<svg width="24" height="24" viewBox="0 0 24 24" fill="none" xmlns="http://www.w3.org/2000/svg">
<path d="M16.396 7.757C16.489 7.84988 16.5627 7.96016 16.6131 8.08156C16.6634 8.20296 16.6893 8.33309 16.6893 8.4645C16.6893 8.59592 16.6634 8.72605 16.6131 8.84744C16.5627 8.96884 16.489 9.07913 16.396 9.172L13.414 12.153L16.09 14.828C16.2776 15.0156 16.3831 15.2701 16.3831 15.5355C16.3831 15.8009 16.2776 16.0554 16.09 16.243C15.9024 16.4306 15.6479 16.5361 15.3825 16.5361C15.1171 16.5361 14.8626 16.4306 14.675 16.243L12 13.567L9.325 16.243C9.13736 16.4306 8.88286 16.5361 8.6175 16.5361C8.35213 16.5361 8.09764 16.4306 7.91 16.243C7.72236 16.0554 7.61694 15.8009 7.61694 15.5355C7.61694 15.2701 7.72236 15.0156 7.91 14.828L10.586 12.153L7.604 9.172C7.51109 9.07903 7.4374 8.96866 7.38714 8.84721C7.33689 8.72575 7.31104 8.59559 7.31109 8.46415C7.31114 8.33271 7.33707 8.20256 7.38741 8.08114C7.43776 7.95973 7.51152 7.84941 7.6045 7.7565C7.69747 7.66359 7.80784 7.5899 7.92929 7.53965C8.05075 7.48939 8.18091 7.46355 8.31235 7.46359C8.44379 7.46364 8.57394 7.48957 8.69536 7.53992C8.81677 7.59026 8.92709 7.66403 9.02 7.757L12 10.74L14.981 7.758C15.0739 7.66503 15.1842 7.59127 15.3056 7.54094C15.427 7.49062 15.5571 7.46472 15.6885 7.46472C15.8199 7.46472 15.95 7.49062 16.0714 7.54094C16.1928 7.59127 16.3031 7.66403 16.396 7.757Z" fill="black"/>
<path fill-rule="evenodd" clip-rule="evenodd" d="M4 1C3.20435 1 2.44129 1.31607 1.87868 1.87868C1.31607 2.44129 1 3.20435 1 4V20C1 20.7956 1.31607 21.5587 1.87868 22.1213C2.44129 22.6839 3.20435 23 4 23H20C20.7956 23 21.5587 22.6839 22.1213 22.1213C22.6839 21.5587 23 20.7956 23 20V4C23 3.20435 22.6839 2.44129 22.1213 1.87868C21.5587 1.31607 20.7956 1 20 1H4ZM20 3H4C3.73478 3 3.48043 3.10536 3.29289 3.29289C3.10536 3.48043 3 3.73478 3 4V20C3 20.2652 3.10536 20.5196 3.29289 20.7071C3.48043 20.8946 3.73478 21 4 21H20C20.2652 21 20.5196 20.8946 20.7071 20.7071C20.8946 20.5196 21 20.2652 21 20V4C21 3.73478 20.8946 3.48043 20.7071 3.29289C20.5196 3.10536 20.2652 3 20 3Z" fill="black"/>
</svg>
